<svg id="Layer_1" data-name="Layer 1" xmlns="http://www.w3.org/2000/svg" viewBox="0 0 60.52 75"><defs><style>.cls-1{fill:#5584ac;}</style></defs><path class="cls-1" d="M10.79,28.33a9.74,9.74,0,1,0,9.74,9.74A9.75,9.75,0,0,0,10.79,28.33Zm0,14.91A5.17,5.17,0,1,1,16,38.07,5.17,5.17,0,0,1,10.79,43.24Z" transform="translate(-1.05 -0.75)"/><path class="cls-1" d="M35,.75a5.58,5.58,0,1,0,5.58,5.57A5.57,5.57,0,0,0,35,.75Zm0,7.92a2.35,2.35,0,1,1,2.35-2.35A2.35,2.35,0,0,1,35,8.67Z" transform="translate(-1.05 -0.75)"/><path class="cls-1" d="M54.35,21a7.22,7.22,0,1,0,7.22,7.22A7.21,7.21,0,0,0,54.35,21Zm0,11A3.74,3.74,0,1,1,58.1,28.2,3.74,3.74,0,0,1,54.35,31.94Z" transform="translate(-1.05 -0.75)"/><path class="cls-1" d="M48.54,33.7A2.72,2.72,0,0,0,44.76,33l-6.18,4.32V15.25a3,3,0,0,0-6,0v36.9L23,44.45a3.2,3.2,0,0,0-4,5L41.58,67.56v5.19a3,3,0,0,0,6,0v-7a3,3,0,0,0-.91-2.15,3.07,3.07,0,0,0-.6-.65l-7.49-6V44l.12-.07,9.17-6.42A2.73,2.73,0,0,0,48.54,33.7Z" transform="translate(-1.05 -0.75)"/></svg>