<svg id="Layer_1" data-name="Layer 1" xmlns="http://www.w3.org/2000/svg" viewBox="0 0 237.94 294.88"><defs><style>.cls-1{fill:#fff;}</style></defs><path class="cls-1" d="M38.29,113.57a38.3,38.3,0,1,0,38.3,38.29A38.29,38.29,0,0,0,38.29,113.57Zm0,58.62a20.33,20.33,0,1,1,20.33-20.33A20.33,20.33,0,0,1,38.29,172.19Z" transform="translate(0 -5.12)"/><path class="cls-1" d="M133.59,5.12a21.94,21.94,0,1,0,21.94,21.93A21.94,21.94,0,0,0,133.59,5.12Zm0,31.16a9.23,9.23,0,1,1,9.23-9.23A9.23,9.23,0,0,1,133.59,36.28Z" transform="translate(0 -5.12)"/><path class="cls-1" d="M209.56,84.68a28.38,28.38,0,1,0,28.38,28.38A28.38,28.38,0,0,0,209.56,84.68Zm0,43.08a14.71,14.71,0,1,1,14.71-14.7A14.71,14.71,0,0,1,209.56,127.76Z" transform="translate(0 -5.12)"/><path class="cls-1" d="M186.68,134.7a10.69,10.69,0,0,0-14.86-2.62l-24.29,17v-87a11.8,11.8,0,0,0-23.59,0V207.21L86.16,177A12.59,12.59,0,1,0,70.42,196.6l88.91,71.2v20.4a11.8,11.8,0,1,0,23.59,0V260.68a11.72,11.72,0,0,0-3.58-8.42,12.74,12.74,0,0,0-2.35-2.58l-29.46-23.59v-51c.16-.1.33-.16.48-.27l36.05-25.24A10.69,10.69,0,0,0,186.68,134.7Z" transform="translate(0 -5.12)"/></svg>