<svg id="Layer_1" data-name="Layer 1" xmlns="http://www.w3.org/2000/svg" viewBox="0 0 51.12 54.83"><defs><style>.cls-1{fill:#000334;}</style></defs><path class="cls-1" d="M168.5,175.5a17,17,0,1,1,17-17A17,17,0,0,1,168.5,175.5Zm0-33.57a16.57,16.57,0,1,0,16.57,16.57A16.58,16.58,0,0,0,168.5,141.93Z" transform="translate(-134.88 -141)"/><path d="M168.5,141A17.5,17.5,0,1,0,186,158.5,17.49,17.49,0,0,0,168.5,141Zm0,33.57a16.07,16.07,0,1,1,16.07-16.07,16.06,16.06,0,0,1-16.07,16.07Z" transform="translate(-134.88 -141)"/><rect class="cls-1" x="130.83" y="179.71" width="31.66" height="7" rx="3.5" transform="translate(-222.45 27.73) rotate(-47.79)"/></svg>